<svg xmlns="http://www.w3.org/2000/svg" version="1.0" preserveAspectRatio="xMidYMid meet" viewBox="16.8 18 412.6 276">
<metadata>
Created by potrace 1.10, written by Peter Selinger 2001-2011
</metadata>
<g transform="translate(0.000000,415.000000) scale(0.100000,-0.100000)" fill="#000000" stroke="none">
<path d="M196 3923 c15 -27 40 -66 56 -87 15 -21 28 -44 28 -49 0 -6 6 -18 13 -26 8 -9 20 -32 27 -51 7 -19 18 -39 25 -45 6 -5 23 -28 36 -50 13 -23 35 -58 47 -78 l24 -37 491 -1 c271 -1 503 -3 517 -4 53 -4 130 -35 189 -75 86 -59 180 -208 181 -287 0 -12 5 -25 10 -28 30 -19 -7 -174 -65 -275 -50 -86 -77 -114 -155 -157 -106 -60 -147 -67 -408 -70 l-232 -4 6 -26 c4 -14 15 -34 25 -44 11 -11 19 -25 19 -33 0 -7 8 -24 19 -37 10 -13 35 -57 56 -97 20 -39 41 -75 47 -78 5 -3 18 -25 29 -48 11 -22 25 -50 32 -61 7 -11 24 -38 37 -60 14 -23 31 -50 38 -60 6 -11 17 -31 22 -45 17 -41 52 -104 70 -125 9 -11 25 -35 34 -52 37 -74 48 -93 56 -98 5 -3 24 -36 44 -73 67 -132 86 -166 99 -181 8 -9 28 -41 45 -72 17 -30 40 -63 51 -73 11 -10 23 -32 27 -49 4 -18 13 -42 21 -54 15 -23 16 -23 285 -23 l271 0 -6 35 c-3 19 -13 42 -21 51 -9 8 -16 19 -16 24 0 5 -6 15 -13 22 -7 7 -20 27 -29 43 -29 58 -51 100 -60 115 -5 8 -15 29 -24 45 -18 35 -29 54 -67 112 -15 24 -27 46 -27 51 0 5 -13 26 -30 48 -16 21 -30 45 -30 52 0 6 -4 12 -8 12 -5 0 -25 35 -46 77 -45 96 -58 118 -124 215 -56 83 -61 98 -34 98 29 0 129 58 198 114 80 65 204 207 204 233 0 13 5 23 10 23 6 0 10 6 10 14 0 7 7 19 15 26 8 7 15 21 15 31 0 9 7 24 15 33 8 8 15 22 15 31 0 8 6 26 14 38 28 43 37 138 33 332 -2 105 -7 204 -11 220 -11 42 -92 210 -132 272 -35 56 -161 193 -176 193 -5 0 -26 16 -46 36 -20 19 -59 46 -87 58 -27 13 -75 35 -105 49 -115 54 -161 57 -902 57 l-680 0 28 -47z"/>
<path d="M2184 3924 c4 -14 29 -61 56 -104 26 -43 51 -88 55 -98 3 -11 12 -23 20 -26 8 -3 15 -12 15 -20 0 -7 16 -40 35 -72 19 -33 41 -73 50 -91 l15 -32 522 -3 c599 -4 572 0 690 -95 37 -30 68 -59 68 -63 0 -5 13 -21 28 -37 28 -27 62 -112 62 -152 0 -11 4 -22 9 -26 12 -7 13 -112 2 -145 -5 -14 -15 -45 -22 -70 -7 -25 -24 -63 -39 -85 -14 -22 -29 -48 -32 -57 -7 -17 -151 -118 -169 -118 -5 0 -22 -8 -36 -17 -24 -16 -60 -18 -285 -21 -196 -3 -258 -7 -258 -16 0 -23 80 -166 93 -166 4 0 7 -6 7 -13 0 -7 11 -29 25 -49 14 -20 25 -42 25 -48 0 -6 11 -26 25 -44 14 -18 25 -36 25 -41 0 -4 25 -47 55 -95 30 -48 55 -90 55 -94 0 -4 16 -31 35 -60 19 -29 41 -68 50 -87 8 -19 29 -59 47 -89 18 -30 42 -70 53 -89 11 -18 35 -58 54 -90 19 -31 45 -76 58 -101 13 -25 59 -102 101 -172 l76 -128 252 0 252 0 5 27 c5 25 -6 53 -42 113 -5 8 -18 33 -28 55 -10 22 -31 59 -46 82 -15 24 -27 45 -27 48 0 4 -11 21 -24 38 -13 18 -37 56 -52 85 -16 29 -43 79 -61 110 -18 31 -47 84 -65 117 -18 33 -38 69 -45 80 -7 11 -19 34 -27 50 -8 17 -23 41 -34 55 -25 33 -62 113 -55 123 2 4 28 19 56 34 84 42 138 82 207 155 79 84 120 129 120 135 0 2 11 19 25 37 14 18 25 39 25 47 0 8 4 19 9 24 5 6 14 28 21 50 7 22 17 45 21 51 5 6 19 45 31 85 18 62 22 99 22 224 0 93 -5 165 -13 190 -7 22 -16 56 -20 75 -5 19 -22 65 -40 103 -17 37 -31 70 -31 73 0 6 -60 96 -69 104 -3 3 -19 24 -35 48 -16 23 -33 42 -37 42 -5 0 -28 21 -51 46 -23 25 -56 52 -72 61 -17 8 -40 24 -51 34 -26 23 -147 82 -205 99 -25 7 -64 19 -88 26 -34 11 -178 14 -723 14 l-681 0 6 -26z"/>
</g>
</svg>